<?xml version="1.0" encoding="UTF-8"?>
<svg width="1200pt" height="1200pt" version="1.1" viewBox="0 0 1200 1200" xmlns="http://www.w3.org/2000/svg">
 <path d="m453.71 262.86c0 12.57 1.1445 24 3.4297 35.43l1.1445-1.1445 171.43 109.71c26.285-5.7148 51.43-18.285 70.855-37.715 5.7148-5.7148 11.43-11.43 16-18.285l-243.43-157.71c-12.574 20.57-18.289 44.57-19.43 69.711zm141.71 147.43h3.4297 8l-144-92.57c6.8555 17.145 17.145 34.285 30.855 48 27.43 27.43 62.855 43.43 101.71 44.57zm-114.29 19.43-10.285 25.145c35.43 16 61.715 43.43 77.715 75.43l24-10.285c-3.4297-8-8-16-13.715-22.855-18.289-29.719-44.574-52.578-77.715-67.434zm214.86-5.7148c9.1445-5.7148 18.285-12.57 26.285-19.43l-18.285-19.43c-27.43 24-62.855 38.855-101.71 38.855l-1.1445 26.285c32 0 62.855-9.1445 89.145-24 2.2852 0.003906 3.4297-1.1367 5.7148-2.2812zm45.715 484.57c-1.1445-3.4297-1.1445-6.8555-2.2852-9.1445l-60.57 156.57c46.855-31.996 73.141-89.141 62.855-147.43zm16-632c-2.2852 38.855-18.285 73.145-43.43 99.43l18.285 19.43c29.715-30.855 49.145-72 52.57-117.71zm-185.14 474.29 4.5703 25.145c6.8555-1.1445 14.855-2.2852 21.715-2.2852 30.855 0 59.43 9.1445 84.57 25.145l14.855-21.715c-28.57-18.285-62.855-28.57-99.43-28.57-9.1367-0.003907-17.137 1.1406-26.281 2.2812zm-11.426-625.14c-24 6.8555-45.715 18.285-64 36.57-5.7148 5.7148-11.43 12.57-17.145 19.43l243.43 157.71c12.57-20.57 19.43-45.715 20.57-70.855 0-10.285 0-19.43-2.2852-28.57zm19.426 536c6.8555-20.57 11.43-41.145 11.43-62.855 0-22.855-4.5703-45.715-12.57-66.285l-24 10.285c12.57 34.285 13.715 72 1.1445 108.57zm59.43-18.285-25.145 5.7148c11.43 41.145 37.715 78.855 76.57 104l13.715-22.855c-33.141-20.574-55.996-51.434-65.141-86.859zm-99.43 424 105.14-269.71c-14.855-4.5703-32-8-45.715-8-10.285 0-18.285 1.1445-27.43 2.2852-9.1445 2.2852-18.285 4.5703-27.43 8l-76.57 198.86c16 30.859 41.145 54.859 72 68.574zm58.285-284.57v-6.8555zm-97.141-358.86c2.2852 1.1445 5.7148 3.4297 8 4.5703 22.855 12.57 49.145 20.57 77.715 22.855l1.1445-26.285c-38.855-2.2852-73.145-18.285-99.43-43.43l-19.43 18.285c10.285 8.0039 20.57 17.148 32 24.004zm123.43 653.71c12.57-2.2852 24-5.7148 34.285-10.285l73.145-188.57c-14.855-33.145-41.145-60.57-73.145-75.43l-105.14 269.71c13.715 4.5703 29.715 6.8555 44.57 6.8555 9.1445 0 17.145-1.1445 26.289-2.2852zm-84.574-425.14c2.2852-5.7148 3.4297-11.43 5.7148-17.145l-139.43 107.43c59.43 1.1445 110.86-35.426 133.71-90.285zm-155.43 90.285 164.57-128c3.4297-34.285-4.5703-67.43-22.855-96l-233.14 172.57c14.855 18.285 35.43 33.145 58.285 42.285 10.285 4.5703 21.715 6.8555 33.145 9.1406zm123.43 10.289c28.57-19.43 51.43-45.715 66.285-78.855l-25.145-10.285c-16 35.43-43.43 61.715-75.43 77.715l10.285 24c8.0039-2.2891 16.004-6.8633 24.004-12.574zm-52.57 62.855c-2.2852 2.2852-3.4297 4.5703-5.7148 6.8555l21.715 14.855c16-21.715 37.715-38.855 62.855-50.285l1.1445-1.1445 1.1445 1.1445c8-3.4297 17.145-6.8555 26.285-8l-4.5703-26.285c-42.289 9.1445-77.715 32.004-102.86 62.859zm0 145.14c1.1445 6.8555 2.2852 12.57 4.5703 18.285l66.285-170.29c-51.426 29.711-82.285 89.141-70.855 152zm-372.57 35.426c16 35.43 45.715 61.715 82.285 74.285 5.7148 2.2852 10.285 3.4297 16 4.5703l-112-141.71c-1.1445 20.57 3.4297 42.285 13.715 62.855zm670.86-97.141 26.285-4.5703c-9.1445-42.285-32-77.715-62.855-102.86-2.2852-2.2852-4.5703-3.4297-6.8555-5.7148l-14.855 21.715c21.715 17.145 40 40 51.43 66.285l2.2852 1.1445-1.1445 2.2852c1.1406 6.8516 3.4258 13.711 5.7109 21.711zm-539.43-110.86m97.145 253.71c17.145-16 30.855-35.43 38.855-58.285 4.5703-11.43 6.8555-24 8-35.43l-129.14-157.71c-5.7148-1.1445-6.8555-1.1445-18.285-1.1445v1.1445c-57.145 0-114.29 38.855-134.86 96-3.4297 9.1445-4.5703 18.285-5.7148 27.43l131.43 166.86h12.57c32 0 61.715-10.285 86.855-28.57l-181.71-226.29 11.43-9.1445zm-241.14-129.14m1050.3 74.285-275.43-90.285c-5.7148 22.855-6.8555 48-1.1445 70.855 2.2852 11.43 6.8555 21.715 11.43 32l196.57 62.855c32-16 56-43.426 68.574-75.426zm17.141-97.145 25.145-5.7148c-11.43-40-34.285-72-65.145-96-3.4297-3.4297-8-5.7148-11.43-8l-13.715 22.855c30.859 19.43 54.859 49.145 65.145 86.859zm-153.14 189.71c11.43 0 22.855-1.1445 34.285-4.5703 4.5703-1.1445 9.1445-2.2852 12.57-3.4297l-164.57-52.57c27.426 36.57 69.715 60.57 117.71 60.57zm141.71-179.43c-2.2852-9.1445-4.5703-17.145-8-25.145l-206.86-66.285c-20.57 11.43-37.715 28.57-50.285 49.145-4.5703 8-9.1445 16-12.57 25.145l275.43 89.145c6.8555-21.719 7.9961-46.859 2.2812-72.004zm-760-72c-19.43-28.57-48-52.57-83.43-66.285l-9.1445 25.145c35.43 14.855 62.855 41.145 80 73.145l24-11.43c-2.2812-6.8594-6.8516-13.715-11.426-20.574zm500.57-353.14c-3.4297-2.2852-5.7148-3.4297-9.1445-4.5703l76.57 152c9.1445-57.145-14.855-116.57-67.426-147.43zm-652.57 307.43v-6.8555zm621.71-30.855 5.7148 25.145c41.145-11.43 78.855-37.715 104-76.57l-22.855-13.715c-20.574 33.141-51.43 54.855-86.859 65.141zm-430.86-298.29c-57.145 0-113.14 35.43-134.86 91.43-2.2852 5.7148-4.5703 11.43-5.7148 17.145l147.43-108.57c-2.2891-0.003906-6.8594-0.003906-6.8594-0.003906zm329.14 12.57 131.43 258.29c20.57-11.43 37.715-28.57 50.285-50.285 5.7148-10.285 10.285-20.57 13.715-30.855l-91.43-182.86c-14.855-4.5703-30.855-9.1445-45.715-9.1445h2.2852v2.2852c-23.996 0-42.281 4.5703-60.57 12.57zm-462.86 189.71c3.4297 8 8 17.145 13.715 24l233.14-172.57c-14.855-18.285-35.43-34.285-58.285-43.43-8-3.4297-17.145-5.7148-25.145-8l-173.71 126.86c-3.4297 25.145 0 50.289 10.285 73.145zm-9.1445 141.71c-3.4297-1.1445-5.7148-2.2852-9.1445-3.4297l105.14 131.43c-3.4258-56-38.855-107.43-96-128zm374.86-300.57 22.855 13.715c21.715-32 52.57-53.715 88-64l-5.7148-25.145c-42.285 10.285-80 36.57-105.14 75.43zm-376 171.43-24 10.285c3.4297 8 8 16 12.57 22.855 19.43 28.57 45.715 51.43 78.855 66.285l10.285-25.145c-34.281-14.852-61.711-42.281-77.711-74.281zm368-160c-16 28.57-24 59.43-24 90.285 0 12.57 1.1445 25.145 3.4297 37.715l25.145-5.7148c-6.8555-35.43-2.2852-73.145 16-107.43zm-340.57 566.86 11.43 24c6.8555-3.4297 13.715-8 20.57-12.57 28.57-19.43 52.57-48 66.285-83.43l-25.145-9.1445c-14.855 36.57-42.285 64-73.141 81.145zm172.57-328c-18.285 6.8555-36.57 10.285-56 10.285-17.145 0-35.43-3.4297-52.57-9.1445l-10.289 25.145c20.57 6.8555 41.145 10.285 61.715 10.285 22.855 0 45.715-4.5703 66.285-12.57zm-8 252.57v-1.1445c-4.5703-9.1445-6.8555-18.285-9.1445-28.57l-26.285 4.5703c9.1445 41.145 32 76.57 62.855 101.71 2.2852 2.2852 4.5703 3.4297 6.8555 5.7148l14.855-21.715c-20.566-14.855-37.707-35.426-49.137-60.57zm10.285-149.71-21.715-14.855c-18.285 28.57-28.57 62.855-28.57 99.43 0 9.1445 1.1445 18.285 2.2852 27.43l26.285-4.5703c-6.8555-38.863 2.2852-76.574 21.715-107.43zm-64 69.715c-1.1445-20.57-6.8555-40-13.715-58.285l-24 11.43c13.715 33.145 16 72 4.5703 108.57l25.145 9.1445c4.5703-13.715 6.8555-28.57 8-42.285v-13.715c-1.1445-5.7148-1.1445-10.289 0-14.859zm-259.43-126.86-11.43-24c-6.8555 3.4297-13.715 8-20.57 12.57-28.57 19.43-52.57 48-66.285 83.43l25.145 9.1445c14.855-36.574 41.141-64.004 73.141-81.145zm-78.855 94.855-25.145-9.1445c-5.7148 18.285-9.1445 37.715-9.1445 56 0 25.145 5.7148 50.285 14.855 73.145l24-11.43c-12.566-34.285-15.996-72-4.5664-108.57zm11.43 121.14-24 11.43c4.5703 6.8555 8 13.711 12.57 19.426 20.57 28.57 48 52.57 83.43 66.285l9.1445-25.145c-36.574-13.711-64.004-39.996-81.145-71.996zm141.71 84.57c-5.7148 0-12.57 0-18.285-1.1445l-1.1445 1.1445-1.1406-1.1445c-9.1445-1.1445-18.285-3.4297-27.43-5.7148l-9.1445 25.145c18.285 5.7148 37.715 9.1445 56 9.1445 25.145 0 50.285-5.7148 73.145-14.855l-11.43-24c-19.426 6.8555-39.996 11.426-60.57 11.426zm618.29-114.29-25.145 5.7148c11.43 38.855 34.285 72 65.145 96 3.4297 2.2852 6.8555 5.7148 11.43 8l13.715-22.855c-32.004-19.434-54.859-50.289-65.145-86.859zm-618.29-204.57c16 0 32 2.2852 46.855 8l9.1445-25.145c-18.285-5.7148-37.715-9.1445-56-9.1445-25.145 0-50.285 5.7148-72 14.855l11.43 24c18.285-7.9922 38.859-12.566 60.57-12.566zm814.86 313.14 5.7148 26.285c40-11.43 73.145-34.285 96-65.145 2.2852-3.4297 5.7148-6.8555 8-11.43l-22.855-13.715c-19.43 29.719-49.145 52.574-86.859 64.004zm-44.57 5.7148c-27.43 0-53.715-6.8555-76.57-19.43l-13.715 22.855c27.43 14.855 58.285 24 90.285 24 12.57 0 24-1.1445 36.57-3.4297l-5.7148-25.145c-10.285 0.003906-20.57 1.1484-30.855 1.1484zm182.86-195.43-25.145 5.7148c8 37.715 1.1445 75.43-17.145 107.43l22.855 13.715c14.855-27.43 24-58.285 24-90.285-1.1367-12.574-2.2812-25.145-4.5664-36.574zm-497.14 178.29-1.1445 2.2852-2.2852-1.1445c-10.285 4.5703-21.715 9.1445-33.145 11.43l4.5703 26.285c41.145-9.1445 76.57-32 102.86-62.855 2.2852-2.2852 3.4297-4.5703 5.7148-6.8555l-21.715-14.855c-14.852 19.426-33.137 34.285-54.852 45.711zm-72 17.145c-30.855 0-59.43-9.1445-83.43-24l-14.855 21.715c28.57 18.285 62.855 28.57 99.43 28.57 9.1445 0 18.285-1.1445 27.43-2.2852l-4.5703-26.285c-9.1445 2.2852-17.145 2.2852-24.004 2.2852zm157.71-180.57c5.7148 37.715-3.4297 75.43-22.855 106.29l21.715 14.855c18.285-28.57 28.57-62.855 28.57-99.43 0-9.1445-1.1445-18.285-2.2852-26.285zm89.145-54.859-22.855-13.715c-14.859 27.43-22.859 58.285-22.859 90.285 0 12.57 1.1445 25.145 3.4297 36.57l25.145-5.7148c-6.8594-38.855-0.003907-75.426 17.141-107.43zm-22.859-102.86c-10.285 2.2852-20.57 3.4297-30.855 3.4297-26.285 0-51.43-6.8555-76.57-19.43l-13.715 22.855c28.57 16 59.43 22.855 90.285 22.855 12.57 0 25.145-1.1445 37.715-3.4297zm-86.855-22.859-84.57-166.86c-13.715 59.43 11.43 123.43 66.285 156.57 5.7148 4.5703 11.43 8 18.285 10.285zm195.43-57.141 22.855 13.715c16-28.57 24-59.43 24-90.285 0-12.57-1.1445-25.145-3.4297-36.57l-26.285 5.7109c6.8594 35.43 2.2852 73.145-17.141 107.43zm13.715-121.14 25.145-5.7148c-11.43-41.145-37.715-78.855-75.43-104l-13.715 22.855c32 20.574 53.711 52.574 64 86.859zm-52.574-120-1.1406 2.2852zm62.859 344c10.285-2.2852 20.57-3.4297 30.855-3.4297 27.43 0 53.715 6.8555 76.57 19.43l13.715-22.855c-27.43-14.855-58.285-24-90.285-24-12.57 0-25.145 1.1445-37.715 3.4297zm-163.43-34.285c21.715 0 42.285-4.5703 60.57-12.57l-131.43-258.29c-21.715 11.43-38.855 29.715-52.57 51.43-4.5703 8-8 14.855-11.43 22.855l98.285 192c12.57 3.4258 24 4.5703 36.57 4.5703zm-30.855-301.71c10.285-2.2852 20.57-3.4297 30.855-3.4297 1.1445 0 52.57 6.8555 76.57 19.43l13.715-22.855c-28.57-16-59.43-24-90.285-24-12.57 0-25.145 1.1445-36.57 3.4297zm179.43 339.43-5.7148-26.285c-38.855 11.43-72 34.285-96 65.145-3.4297 3.4297-5.7148 8-8 11.43l22.855 13.715c19.434-29.719 50.289-52.574 86.859-64.004zm45.715 1.1406v-6.8555zm121.14 74.289c-26.285-41.145-69.715-67.43-123.43-67.43-10.285 0-22.855 1.1445-33.145 4.5703-6.8555 2.2852-13.715 4.5703-20.57 6.8555zm-371.43-637.71c-6.8555-20.57-18.285-38.855-33.145-53.715-26.285-27.43-61.715-43.43-100.57-44.57h-2.2852v-11.43 11.43c-11.43 0-12.57 1.1445-18.285 1.1445zm21.715 42.285 26.285 1.1445c-1.1445-45.715-18.285-88-46.855-120l-18.289 17.141c24 27.43 38.859 62.855 38.859 101.71zm-278.86 108.57c-24-27.43-38.855-62.855-38.855-100.57l-26.285-1.1445c1.1445 45.715 18.285 88 46.855 120zm-73.141 69.715c11.43 0 34.285 3.4297 51.43 9.1445l10.285-25.145c-20.57-6.8555-41.145-11.43-61.715-11.43-22.855 0-45.715 4.5703-66.285 12.57l11.43 24c15.996-5.7109 31.996-9.1406 54.855-9.1406zm-69.715 16-10.285-24c-8 3.4297-16 8-22.855 12.57-28.57 19.43-52.57 45.715-66.285 78.855l25.145 10.285c14.852-35.426 42.281-62.855 74.281-77.711zm68.57-16v13.715h1.1445v-13.711c0-0.003906-1.1445-0.003906-1.1445-0.003906zm-148.57 214.86c-12.57-34.285-13.715-72-1.1445-108.57l-24-9.1406c-6.8555 20.57-10.285 41.145-10.285 61.715 0 22.855 4.5703 45.715 12.57 66.285zm227.43-499.43-18.285-19.43c-29.715 30.855-49.145 72-51.43 117.71l26.285 1.1445c2.2852-38.859 18.285-73.145 43.43-99.43zm244.57-24c-30.855-29.715-72-49.145-117.71-51.43l-1.1445 26.285c38.855 2.2852 73.145 18.285 99.43 43.43zm-132.57-25.145v-26.285c-45.715 1.1445-88 18.285-120 46.855l18.285 19.43c27.43-24 62.855-38.855 101.71-40z" fill="#2F85F7"/>
</svg>
