<?xml version="1.0" encoding="UTF-8"?>
<svg width="1200pt" height="1200pt" version="1.1" viewBox="0 0 1200 1200" xmlns="http://www.w3.org/2000/svg">
 <g fill="#2F85F7">
  <path d="m1093.2 631.56h-304l-51.652-166.26c-5.7383-18.438-22.434-30.781-41.562-30.781h-604.52c-24.004 0-43.652 19.477-43.652 43.652v221.57h1104.3v-9.2188c0-32.523-26.438-58.957-58.961-58.957zm-832.17 5.5625h-101.04c-9.7383 0-17.566-7.8242-17.566-17.566v-78.781c0-9.7383 7.8242-17.566 17.566-17.566h101.04zm144.7-17.562c0 9.7383-7.8281 17.566-17.566 17.566h-101.04v-113.91h101.04c9.7383 0 17.566 7.8281 17.566 17.566zm125.22-9.2188c-9.5664 0-17.566-7.8242-17.566-17.566v-52c0-9.7383 8-17.566 17.566-17.566h197.21l27.133 87.129zm-483.13 115.48v196.7c0 7.3047 5.9141 13.043 13.043 13.043h59.652c4.8711 0 9.3906-2.7812 11.652-7.1328l44.695-88.871c5.5664-10.957 17.043-18.086 29.391-18.086h143.48c12.348 0 23.828 7.1289 29.391 18.086l44.52 88.871c2.2617 4.3477 6.7852 7.1328 11.656 7.1328h337.74c4.8711 0 9.3906-2.7812 11.652-7.1328l44.695-88.871c5.5664-10.957 17.043-18.086 29.391-18.086h143.48c12.176 0 23.828 7.1289 29.219 18.086l44.695 88.871c2.2617 4.3477 6.7852 7.1328 11.652 7.1328h5.3906c32.523 0 58.957-26.434 58.957-58.957v-150.78z"/>
  <path d="m925.54 923.66c-15.168 0-27.512 12.332-27.512 27.496 0 15.168 12.348 27.496 27.512 27.496 15.168 0 27.496-12.332 27.496-27.496 0-15.168-12.328-27.496-27.496-27.496z"/>
  <path d="m1139.1 1034.9h-142.69c23.742-20.145 38.875-50.145 38.875-83.656 0-60.52-49.219-109.91-109.74-109.91-60.52 0-109.91 49.395-109.91 109.91 0 33.512 15.184 63.516 38.977 83.656h-793.77c-7.1992 0-13.043 5.8438-13.043 13.043 0 7.1992 5.8438 13.043 13.043 13.043h1078.3c7.1992 0 13.043-5.8438 13.043-13.043-0.003906-7.1992-5.8438-13.043-13.047-13.043zm-213.59-137.3c29.551 0 53.582 24.031 53.582 53.582s-24.031 53.582-53.582 53.582c-29.551 0-53.602-24.031-53.602-53.582 0-29.547 24.051-53.582 53.602-53.582z"/>
  <path d="m274.09 841.3c-60.52 0-109.74 49.395-109.74 109.91 0 60.52 49.219 109.74 109.74 109.74 60.52 0 109.91-49.219 109.91-109.74 0-60.523-49.391-109.91-109.91-109.91zm0.039062 163.44c-29.551 0-53.582-24.031-53.582-53.582 0-29.551 24.031-53.582 53.582-53.582 29.551 0 53.602 24.031 53.602 53.582 0 29.551-24.051 53.582-53.602 53.582z"/>
  <path d="m274.13 923.66c-15.168 0-27.496 12.332-27.496 27.496 0 15.168 12.332 27.496 27.496 27.496 15.168 0 27.512-12.332 27.512-27.496 0.003906-15.168-12.344-27.496-27.512-27.496z"/>
  <path d="m327.48 139.04h-117.91c-16.867 0-30.434 13.562-30.434 30.434v68.695h-34.609c-16.867 0-30.434 13.738-30.434 30.434v59.824c0 16.867 13.566 30.434 30.434 30.434h34.609v49.566l178.79 0.003906v-238.96c0-16.871-13.742-30.434-30.438-30.434zm-148.35 193.73h-34.609c-2.4336 0-4.3477-1.9141-4.3477-4.3477v-59.824c0-2.2617 1.9141-4.3477 4.3477-4.3477h34.609z"/>
  <path d="m664 279.39h-86.262v-34.609c0-16.695-13.566-30.434-30.434-30.434h-59.824c-16.695 0-30.434 13.738-30.434 30.434v34.609h-73.047v129.04h293.04v-116c0-7.1289-5.9141-13.043-13.043-13.043zm-112.35 0h-68.52v-34.609c0-2.2617 1.9102-4.3477 4.3477-4.3477h59.824c2.4336 0 4.3477 2.0859 4.3477 4.3477z"/>
 </g>
</svg>
