<?xml version="1.0" encoding="UTF-8"?>
<svg width="1200pt" height="1200pt" version="1.1" viewBox="0 0 1200 1200" xmlns="http://www.w3.org/2000/svg">
 <g fill="#2F85F7">
  <path d="m1192.2 541.11c-1.5039-21.785-15.348-40.941-35.266-48.793-23.766-9.3555-48.727-13.535-49.582-13.68-40.094-7.4492-45.324-20.527-53.992-42.199-10.289-25.719-23.566-58.824-95.27-93.031-9.25-18.555-15.758-39.293-19.625-53.746-5.0664-18.93-16.793-35.77-33.027-47.422-52.867-37.941-119.35-64.52-154.27-76.988-23.949-8.5352-50.297-7.2695-72.301 3.5547-52.289 25.684-88.926 62.863-100.13 75.062-46.152-7.4492-67.977-9.7266-140.06-13.242-15.402-0.74219-33.246 8.25-42.43 21.406-29.016 41.551-55.402 80.609-74.512 117.16-35.094 2.6211-79.074-5.1641-102.86-10.27-14.395-3.1055-29.055-0.60938-41.285 6.9453-59.629 36.84-131.66 104.82-161.41 135.61-13.688 14.164-19.129 33.789-14.574 52.477 13.926 57.09 52.82 105.77 63.672 118.52-0.21875 2.3906-0.42969 4.7422-0.64844 7.2305-3.1523 35.465-7.4688 84.02-22.461 171.68-3.1914 18.652 4.7344 37.34 20.176 47.609 59.129 39.305 108.26 50.965 151.62 61.242 37.027 8.793 69.004 16.375 100.79 39.152 8.5156 6.1172 18.461 9.3086 28.387 9.3086 3.6953 0 7.3906-0.4375 11.023-1.3438 62.328-15.488 109.1-55.316 154.33-93.832 28.023-23.871 54.641-46.41 82.887-61.176 0.16016 0.21094 0.28516 0.37109 0.44922 0.57031 18.52 23.766 49.523 63.559 84.57 63.559h181.18c36.438-0.71484 66.672-18.766 85.133-50.812 17.957-31.16 26.586-66.234 33.742-105.55 26.738 13.668 43.715 18.012 57.031 18.012 8.2969 0 15.164-1.6758 22.102-3.8203 9.2891-2.8672 17.691-5.4102 25.395-7.7539 43.57-13.23 65.441-19.871 95.383-37.293 15.031-8.7461 24.102-24.891 23.664-42.145-1.1797-45.613-5.4102-111.06-7.8281-146.01zm-156.53-97.582c0.72266 1.8086 1.4492 3.6094 2.1914 5.4023l-73.473 53.125c-58.434-50.152-123.79-93.945-171.24-123.43 10.316-10.422 29.188-28.484 48.211-41.723 9.5547-6.6484 21.949-8.5352 33.16-5.0195 133.11 41.527 149.32 82.051 161.15 111.64zm-70.559 269.73c-31.703 3.5352-57.383-10.059-76.219-40.809-41.781-68.281-80.457-85.41-111.53-99.164-45.535-20.156-75.875-33.723-87.191-213.73 0.35156 0 0.69531 0.019531 1.0469 0.019531 1.5156 0.42969 3.0781 0.58203 4.6406 0.23828 20.062 0.82812 40.074 6.5625 58.242 17.348 53.441 31.742 154.51 95.938 231.04 169.29 10.402 9.9727 14.031 25.605 9.2578 39.828-15.094 44.887-22.82 88.141-29.289 126.98zm-277.83-527.34c17.414-8.543 38.371-9.5469 57.5-2.7148 33.98 12.125 98.602 37.941 149.57 74.531 12.66 9.0859 21.797 22.176 25.73 36.855 2.7617 10.336 6.8203 23.758 12.223 37.543-15.223-6.1445-32.438-12.309-52.098-18.441-13.156-4.125-27.387-3.1992-39.848 2.1719-95.66 13.859-125.41-67.434-126.68-71.043-1.7148-4.9648-7.1172-7.582-12.109-5.8867-4.9727 1.7227-7.6094 7.1367-5.8984 12.109 0.3125 0.90625 29.094 80.379 115.5 85.059-14.918 12.414-27.789 25.168-34.695 32.293-4.4375-2.6875-8.707-5.2578-12.66-7.6016-20.27-12.039-42.59-18.594-65.043-19.871-10.613-15.793-16.699-27.5-21.613-37.02-2.6094-5.0586-4.9531-9.5742-7.4766-13.832-1.8008-3.0273-3.3047-5.7734-4.6758-8.2695-10.191-18.5-15.805-26.254-52.773-32.387l-3.9609-0.67578c-2.3125-0.37891-4.4102-0.73047-6.6016-1.0938 15.805-15.586 46.211-42.379 85.602-61.727zm-275.39 77.023c5.5078-7.8867 16.812-13.773 25.883-13.277 84.734 4.1445 97.355 6.2305 167.39 17.871l3.9531 0.64844c29.34 4.8789 31.227 8.3047 39.207 22.797 1.457 2.6484 3.0664 5.5742 4.9727 8.793 2.3516 3.9609 4.5156 8.1641 6.9453 12.871 4.0391 7.8203 8.832 17.051 16.098 28.691-10.469 1.1328-20.824 3.4102-30.883 7-91.43 32.625-174.91 128.07-194.55 151.68-10.562-3.5625-21.414-7.0508-32.418-10.594-35.492-11.422-72.043-23.359-106.45-39.523 8.9727-53.258 50.535-116.3 99.859-186.96zm-328.29 418.46c2.9141-32.742 4.8281-54.363 12.887-86.344 3.793-15.051 13.469-27.977 26.559-35.445 30.102-17.164 47.648-28.348 71.941-43.82 19.539-12.441 43.855-27.93 83.047-51.859 5.0781-3.1133 12.652-3.0117 19.281 0.23047 36.477 17.844 74.969 30.387 112.34 42.418-42.094 58.422-62.891 109.92-71.73 136.26-1.9922 5.9258-6.8672 10.48-13.039 12.184-140.12 38.723-216.43 69.445-246.92 82.953 2.6328-22.824 4.2461-40.961 5.6367-56.574zm-63.492-131.96c-3-12.297 0.64844-25.281 9.7656-34.723 29.18-30.207 99.707-96.801 157.74-132.65 8.0391-4.9648 17.727-6.543 27.273-4.5234 22.395 4.8281 62.09 12.004 97.25 11.27-8.6211 18.852-15.023 37.02-18.355 54.449-9.1055-1.543-18.289-0.11328-25.672 4.4023-39.352 24.023-63.746 39.562-83.352 52.059-24.062 15.316-41.449 26.395-71.148 43.344-17.566 10.02-30.539 27.273-35.59 47.336-5.1836 20.559-7.9531 37.332-9.9922 54.734-15.168-20.445-38.305-56.281-47.918-95.699zm476.01 349.58c-43.551 37.094-88.582 75.445-146.57 89.848-7.918 2.0117-16.566 0.17188-23.711-4.9531-34.836-24.977-70.121-33.352-107.49-42.211-41.801-9.918-89.172-21.156-145.47-58.574-9.1719-6.1055-13.871-17.289-11.945-28.52 6.5156-38.113 11.031-68.863 14.316-94.43 18.328-8.6406 95.25-42.723 254.7-86.789 12.289-3.3906 22.016-12.547 26.023-24.48 8.7344-26.043 29.723-77.723 72.777-136.14 36.742 11.953 70.777 23.938 95.953 40.238 5.9727 3.8594 10.242 10.309 11.688 17.68 8.0195 40.801 30.301 145.57 63.785 237.09 3.3906 9.2695-1.0195 19.547-10.258 23.91-33.07 15.621-62.562 40.738-93.797 67.336zm430.07-42.848c-15.004 26.023-39.512 40.684-68.816 41.266h-180.99c-25.32 0-52.23-34.008-68.699-55.125 11.297-10.25 15.832-26.227 10.395-41.086-33.016-90.238-55.039-193.86-62.977-234.22-2.4375-12.414-9.7344-23.34-20.023-29.996-18.414-11.906-40.637-21.453-64.863-30.227 25.141-29.129 101.65-111.95 181.64-140.51 6.3164-2.2578 12.805-3.7539 19.348-4.8789 11.535 181.95 43.543 205 98.461 229.32 30.148 13.348 64.309 28.473 103 91.676 20.461 33.438 48.812 50.695 82.762 50.695 2.1133 0 4.2773-0.17188 6.4414-0.30469-7.9531 47.473-15.762 88.855-35.672 123.39zm240.58-143.38c-28.023 16.301-47.867 22.328-91.336 35.531-7.7344 2.3438-16.164 4.9141-25.48 7.7812-12.652 3.8945-25.797 7.8672-70.062-15.707 0.83984-4.9453 1.668-9.8984 2.5039-14.977 7.0195-42.352 14.281-86.152 30.062-133.11 7.125-21.188 1.5703-44.59-14.125-59.641-6.2578-5.9922-12.707-11.898-19.242-17.758l67.547-48.84c9.0586 13.633 24.148 25.121 57.441 31.301 0.23828 0.046875 23.984 4.0117 45.887 12.641 13.117 5.1641 22.234 17.879 23.242 32.379 2.4023 34.789 6.6211 99.906 7.7617 145.18 0.25 10.312-5.1875 19.969-14.199 25.219z"/>
  <path d="m180.92 449.72c0.11328 0 0.23047 0 0.34375-0.007812 1.5234-0.058594 37.598-1.4375 60.945-10.879 4.8789-1.9609 7.2383-7.5156 5.2695-12.395-1.9609-4.8789-7.5156-7.2383-12.402-5.2695-20.223 8.1641-54.156 9.4766-54.496 9.4961-5.2578 0.19141-9.3633 4.6016-9.1719 9.8594 0.17578 5.1484 4.4023 9.1953 9.5117 9.1953z"/>
  <path d="m372.43 416.26c1.7148 3.1992 5 5.0195 8.4023 5.0195 1.5156 0 3.0586-0.36328 4.4883-1.125 4.1523-2.2305 102.2-54.965 146.3-96.078 3.8477-3.5898 4.0586-9.6211 0.47656-13.461-3.582-3.8594-9.6211-4.0664-13.461-0.47656-42.297 39.43-141.31 92.68-142.31 93.211-4.6406 2.5-6.3867 8.2734-3.8984 12.91z"/>
  <path d="m486.54 689.58h-0.027344c-5.2305 0-9.4961 4.2383-9.5273 9.4766 0 0.41016-0.67578 41.906-35.551 78.332-3.6406 3.793-3.5039 9.8203 0.29687 13.469 1.8398 1.7734 4.2109 2.6406 6.582 2.6406 2.5039 0 5.0117-0.99219 6.8789-2.9453 40.379-42.172 40.848-89.488 40.848-91.477 0-5.2305-4.25-9.4766-9.5-9.4961z"/>
  <path d="m879.31 527.54c-51.469-3.4492-72.148-17.52-72.578-17.824-4.2383-3.0586-10.145-2.1445-13.25 2.0664-3.125 4.2383-2.2188 10.203 2.0117 13.316 0.97266 0.71484 24.414 17.555 82.543 21.453 0.21875 0.007812 0.42969 0.019531 0.64844 0.019531 4.9727 0 9.1562-3.8594 9.4961-8.8867 0.35156-5.2578-3.6211-9.793-8.8711-10.145z"/>
  <path d="m1080.1 553.68c1.6562-5.2773 3.457-10.973 5.1992-17.27 1.4102-5.0664-1.5508-10.324-6.6211-11.727-5.0859-1.4297-10.316 1.543-11.727 6.6094-1.6875 6.0781-3.418 11.574-5.0195 16.66-14.852 47.199-15.184 65.156 76.121 128.41 1.6484 1.1445 3.543 1.6953 5.4102 1.6953 3.0195 0 5.9922-1.4297 7.8398-4.1055 3-4.3242 1.9258-10.258-2.4023-13.262-84.129-58.266-80.578-69.574-68.801-107.01z"/>
  <path d="m1057.5 936.3c-26.902 0-68.379 16.52-68.379 38.465 0 15.48 12.059 33.941 69.512 33.941 33.969 0 46.027-18.164 46.027-33.73 0.003906-19.012-17.641-38.676-47.16-38.676zm1.1328 53.348c-34.855 0-50.457-7.4766-50.477-14.672 1.4688-6.1641 27.09-19.633 49.344-19.633 19.387 0 28.109 11.469 28.109 19.625 0 9.1914-10.086 14.68-26.977 14.68z"/>
  <path d="m1066.9 878.39c0 5.2617-4.2656 9.5273-9.5234 9.5273-5.2617 0-9.5273-4.2656-9.5273-9.5273s4.2656-9.5273 9.5273-9.5273c5.2578 0 9.5234 4.2656 9.5234 9.5273"/>
  <path d="m885.93 945.07c-21.016 0-38.105 14.957-38.105 33.34 0 18.387 17.09 33.34 38.105 33.34 21.016 0 38.105-14.957 38.105-33.34 0-18.383-17.09-33.34-38.105-33.34zm0 47.633c-10.324 0-19.051-6.543-19.051-14.289 0-7.7461 8.7266-14.289 19.051-14.289 10.324 0 19.051 6.543 19.051 14.289 0 7.7422-8.7227 14.289-19.051 14.289z"/>
  <path d="m736.34 968.89c-20.699 0-60.301 13.906-60.301 35.723 0 21.699 19.93 35.723 50.762 35.723 25.141 0 44.828-14.641 44.828-33.34-0.007812-18.969-10.914-38.105-35.289-38.105zm-9.5352 52.395c-5.2969 0-31.711-0.80078-31.73-16.5 1.1992-5.1523 23.055-16.844 41.266-16.844 13.422 0 16.242 10.363 16.242 19.051-0.011719 6.7461-11.031 14.293-25.777 14.293z"/>
  <path d="m591.84 937.67c-7.8477-6.2578-17.434-9.3906-27.102-8.8984-10.039 0.54297-18.863 4.9805-24.863 12.508-12.098 15.176-8.4688 38.258 8.0859 51.449 7.2969 5.8125 16.117 8.9453 25.043 8.9453 0.6875 0 1.3711-0.019531 2.0586-0.058593 10.039-0.54297 18.863-4.9805 24.863-12.508 12.102-15.156 8.4688-38.234-8.0859-51.438zm-6.8125 39.59c-2.5547 3.2109-6.457 5.1055-10.992 5.3633-4.9648 0.17188-9.9922-1.4297-14.195-4.7812-8.3359-6.6406-10.602-17.707-5.0586-24.684 2.5547-3.2109 6.457-5.1055 10.992-5.3633 0.34375-0.019531 0.6875-0.019531 1.0195-0.019531 4.6211 0 9.2578 1.6875 13.176 4.8008 8.3359 6.6406 10.605 17.707 5.0586 24.684z"/>
  <path d="m75.809 962.48c-31.32 0-47.211 8.5625-47.211 25.461 0 10.031 4.1719 33.34 42.867 33.34 24.035 0 42.867-14.641 42.867-33.34 0-25.461-27-25.461-38.523-25.461zm-4.3438 39.75c-23.816 0-23.816-10.012-23.816-14.289 0-1.7891 5.0586-6.4102 28.16-6.4102 19.473 0 19.473 3.2578 19.473 6.4102-0.003906 6.7656-9.7852 14.289-23.816 14.289z"/>
  <path d="m28.598 906.97c0 5.2617-4.2656 9.5273-9.5273 9.5273-5.2617 0-9.5234-4.2656-9.5234-9.5273s4.2617-9.5273 9.5234-9.5273c5.2617 0 9.5273 4.2656 9.5273 9.5273"/>
  <path d="m181.01 1030.8c0 5.2617-4.2656 9.5273-9.5273 9.5273-5.2578 0-9.5234-4.2656-9.5234-9.5273 0-5.2617 4.2656-9.5234 9.5234-9.5234 5.2617 0 9.5273 4.2617 9.5273 9.5234"/>
 </g>
</svg>
