<?xml version="1.0" encoding="UTF-8"?>
<svg width="1200pt" height="1200pt" version="1.1" viewBox="0 0 1200 1200" xmlns="http://www.w3.org/2000/svg">
 <g fill="#2F85F7">
  <path d="m1196.5 814.62h-1194.5v60.562h84.48c-5.5781 10.922-8.7969 23.258-8.7969 36.348 0 44.195 35.809 79.992 79.992 79.992 31.055 0 57.926-17.746 71.172-43.621h37.703c13.234 25.871 40.105 43.621 71.172 43.621 44.184 0 79.992-35.797 79.992-79.992 0-13.105-3.2031-25.43-8.7969-36.348h145.87v56.941h89.688v-56.941h152.33c-5.5938 10.922-8.7852 23.258-8.7852 36.348 0 44.195 35.797 79.992 79.98 79.992 31.055 0 57.926-17.746 71.184-43.621h37.691c13.246 25.871 40.117 43.621 71.184 43.621 44.184 0 79.992-35.797 79.992-79.992 0-13.105-3.2148-25.43-8.7969-36.348h77.27l0.003906-60.562zm-1038.8 126.47c-16.332 0-29.566-13.234-29.566-29.555 0-16.297 13.234-29.543 29.566-29.543 16.32 0 29.566 13.246 29.566 29.543 0 16.316-13.246 29.555-29.566 29.555zm180.05 0c-16.332 0-29.555-13.234-29.555-29.555 0-16.297 13.234-29.543 29.555-29.543 16.32 0 29.566 13.246 29.566 29.543 0.003906 16.316-13.246 29.555-29.566 29.555zm530.26 0c-16.32 0-29.555-13.234-29.555-29.555 0-16.297 13.234-29.543 29.555-29.543 16.309 0 29.566 13.246 29.566 29.543 0 16.316-13.258 29.555-29.566 29.555zm180.06 0c-16.32 0-29.555-13.234-29.555-29.555 0-16.297 13.234-29.543 29.555-29.543s29.555 13.246 29.555 29.543c0.003906 16.316-13.234 29.555-29.555 29.555z"/>
  <path d="m986.32 435.25h-984.31v163.77l150.06 188.54h862.36l175.45-188.53-0.003906-163.77zm-729.47 160.05h-24.59v-98.23h24.59zm114.04 0h-24.59v-98.23h24.59zm114.04 0h-24.59v-98.23h24.59zm114.02 0h-24.59v-98.23h24.59zm114.06 0h-24.59v-98.23h24.59zm114.02 0h-24.586v-98.23h24.59zm114.05 0h-24.59v-98.23h24.59z"/>
  <path d="m364.78 375.47c0 16.031-12.996 29.027-29.031 29.027-16.031 0-29.027-12.996-29.027-29.027s12.996-29.027 29.027-29.027c16.035 0 29.031 12.996 29.031 29.027"/>
  <path d="m465.7 375.47c0 16.031-12.996 29.027-29.027 29.027s-29.027-12.996-29.027-29.027 12.996-29.027 29.027-29.027 29.027 12.996 29.027 29.027"/>
  <path d="m262.27 375.47c0 16.031-12.996 29.027-29.031 29.027-16.031 0-29.027-12.996-29.027-29.027s12.996-29.027 29.027-29.027c16.035 0 29.031 12.996 29.031 29.027"/>
  <path d="m566.61 375.47c0 16.031-12.996 29.027-29.031 29.027-16.031 0-29.027-12.996-29.027-29.027s12.996-29.027 29.027-29.027c16.035 0 29.031 12.996 29.031 29.027"/>
  <path d="m667.52 375.47c0 16.031-12.996 29.027-29.027 29.027s-29.027-12.996-29.027-29.027 12.996-29.027 29.027-29.027 29.027 12.996 29.027 29.027"/>
  <path d="m667.52 215.77c0 16.031-12.996 29.027-29.027 29.027s-29.027-12.996-29.027-29.027 12.996-29.031 29.027-29.031 29.027 13 29.027 29.031"/>
  <path d="m768.45 375.47c0 16.031-12.996 29.027-29.031 29.027-16.031 0-29.027-12.996-29.027-29.027s12.996-29.027 29.027-29.027c16.035 0 29.031 12.996 29.031 29.027"/>
  <path d="m412.79 294.32c0 16.031-12.996 29.027-29.027 29.027-16.035 0-29.031-12.996-29.031-29.027s12.996-29.027 29.031-29.027c16.031 0 29.027 12.996 29.027 29.027"/>
  <path d="m614.62 294.32c0 16.031-12.996 29.027-29.027 29.027-16.035 0-29.031-12.996-29.031-29.027s12.996-29.027 29.031-29.027c16.031 0 29.027 12.996 29.027 29.027"/>
  <path d="m715.54 294.32c0 16.031-12.996 29.027-29.027 29.027s-29.027-12.996-29.027-29.027 12.996-29.027 29.027-29.027 29.027 12.996 29.027 29.027"/>
  <path d="m816.42 294.32c0 16.031-13 29.027-29.031 29.027s-29.027-12.996-29.027-29.027 12.996-29.027 29.027-29.027 29.031 12.996 29.031 29.027"/>
  <path d="m869.35 375.47c0 16.031-12.996 29.027-29.027 29.027s-29.027-12.996-29.027-29.027 12.996-29.027 29.027-29.027 29.027 12.996 29.027 29.027"/>
  <path d="m970.27 375.47c0 16.031-12.996 29.027-29.031 29.027-16.031 0-29.027-12.996-29.027-29.027s12.996-29.027 29.027-29.027c16.035 0 29.031 12.996 29.031 29.027"/>
 </g>
</svg>
