<?xml version="1.0" encoding="UTF-8"?>
<svg width="1200pt" height="1200pt" version="1.1" viewBox="0 0 1200 1200" xmlns="http://www.w3.org/2000/svg">
 <g fill="#2F85F7">
  <path d="m302.02 78.281-66.281-66.281c-7.6953-7.6875-18.129-12.004-29.004-12.004s-21.309 4.3164-29.004 12.004l-165.73 165.73c-7.6875 7.6953-12.004 18.129-12.004 29.004s4.3164 21.309 12.004 29.004l66.281 66.281c7.6875 7.6992 18.125 12.023 29.004 12.023s21.316-4.3242 29.004-12.023l165.73-165.73c7.6758-7.6992 11.984-18.129 11.984-29.004s-4.3086-21.305-11.984-29.004z"/>
  <path d="m641.02 717.19c0 27.215 14.52 52.359 38.086 65.965 23.566 13.609 52.605 13.609 76.172 0 23.566-13.605 38.086-38.75 38.086-65.965 0-29.039-42.375-92.812-76.172-136.05-33.797 43.242-76.172 107.06-76.172 136.05z"/>
  <path d="m963.28 371.48h-492.19c-7.7656 0.011719-15.211 3.1016-20.703 8.5938s-8.582 12.938-8.5938 20.703v562.5c0.011719 7.7656 3.1016 15.211 8.5938 20.703s12.938 8.582 20.703 8.5938h492.19c7.7656-0.011719 15.211-3.1016 20.703-8.5938s8.582-12.938 8.5938-20.703v-562.5c-0.011719-7.7656-3.1016-15.211-8.5938-20.703s-12.938-8.582-20.703-8.5938zm-246.09 457.03c-29.516-0.039063-57.809-11.777-78.68-32.648-20.871-20.871-32.609-49.164-32.648-78.68 0-56.531 87.82-163.34 97.828-175.34 3.3438-3.9961 8.2891-6.3086 13.5-6.3086s10.156 2.3125 13.5 6.3086c9.9375 12 97.828 118.8 97.828 175.34-0.039063 29.516-11.777 57.809-32.648 78.68-20.871 20.871-49.164 32.609-78.68 32.648z"/>
  <path d="m1135.5 0h-547.27c-20.277 0.046875-39.359 9.5898-51.562 25.781l-121.29 161.72h-71.602l-21.633-21.633-157.43 157.43 54.375 54.398v757.85c0.023437 17.086 6.8242 33.465 18.906 45.547s28.461 18.883 45.547 18.906h851.95c17.086-0.023438 33.465-6.8242 45.547-18.906s18.883-28.461 18.906-45.547v-1071.1c-0.023438-17.086-6.8242-33.465-18.906-45.547s-28.461-18.883-45.547-18.906zm-107.81 963.28c-0.023437 17.086-6.8242 33.465-18.906 45.547s-28.461 18.883-45.547 18.906h-492.19c-17.086-0.023437-33.465-6.8242-45.547-18.906s-18.883-28.461-18.906-45.547v-562.5c0.023437-17.086 6.8242-33.465 18.906-45.547s28.461-18.883 45.547-18.906h492.19c17.086 0.023437 33.465 6.8242 45.547 18.906s18.883 28.461 18.906 45.547zm78.516-781.64c-0.011719 10.875-4.3359 21.301-12.027 28.988-7.6875 7.6914-18.113 12.016-28.988 12.027h-515.62c-4.375 0-8.5938-1.6328-11.828-4.5742-3.2344-2.9453-5.2578-6.9883-5.6719-11.344s0.8125-8.707 3.4375-12.207l63.281-84.375c7.7695-10.301 19.91-16.371 32.812-16.406h433.59c10.875 0.011719 21.301 4.3359 28.988 12.027 7.6914 7.6875 12.016 18.113 12.027 28.988z"/>
 </g>
</svg>
