<?xml version="1.0" encoding="UTF-8"?>
<svg width="1200pt" height="1200pt" version="1.1" viewBox="0 0 1200 1200" xmlns="http://www.w3.org/2000/svg">
 <g fill="#2F85F7">
  <path d="m993.75 18.75h-393.75c-4.9727 0-9.7422 1.9766-13.258 5.4922l-80.492 80.496-42.992-42.996c-3.5195-3.5117-8.2852-5.4883-13.258-5.4883s-9.7383 1.9766-13.258 5.4883l-42.992 42.996-80.492-80.496c-3.5156-3.5156-8.2852-5.4922-13.258-5.4922h-131.25c-4.9727 0-9.7422 1.9766-13.258 5.4922-3.5156 3.5156-5.4922 8.2852-5.4922 13.258v75c0 4.9727 1.9766 9.7422 5.4922 13.258 3.5156 3.5156 8.2852 5.4922 13.258 5.4922h85.988l56.25 56.25-42.992 42.992h-0.003906c-3.5117 3.5195-5.4883 8.2852-5.4883 13.258s1.9766 9.7383 5.4883 13.258l42.996 42.992-80.492 80.492h-0.003906c-3.5156 3.5156-5.4922 8.2852-5.4922 13.258v731.25c0 14.918 5.9258 29.227 16.477 39.773 10.547 10.551 24.855 16.477 39.773 16.477h712.5c14.918 0 29.227-5.9258 39.773-16.477 10.551-10.547 16.477-24.855 16.477-39.773v-1050c0-14.918-5.9258-29.227-16.477-39.773-10.547-10.551-24.855-16.477-39.773-16.477zm-717.99 80.492c-3.5156-3.5156-8.2852-5.4922-13.258-5.4922h-75v-37.5h104.74l75 75-29.738 29.738zm32.004 144.51 142.24-142.24 29.738 29.738-142.24 142.24zm300-187.5h385.99c4.9727 0 9.7422 1.9766 13.258 5.4922 3.5156 3.5156 5.4922 8.2852 5.4922 13.258v356.25h-750v-29.738zm404.74 412.5v562.5h-750v-562.5zm-18.75 675h-712.5c-4.9727 0-9.7422-1.9766-13.258-5.4922-3.5156-3.5156-5.4922-8.2852-5.4922-13.258v-56.25h750v56.25c0 4.9727-1.9766 9.7422-5.4922 13.258-3.5156 3.5156-8.2852 5.4922-13.258 5.4922z"/>
  <path d="m693.75 281.25h225c14.918 0 29.227-5.9258 39.773-16.477 10.551-10.547 16.477-24.855 16.477-39.773v-75c0-14.918-5.9258-29.227-16.477-39.773-10.547-10.551-24.855-16.477-39.773-16.477h-225c-14.918 0-29.227 5.9258-39.773 16.477-10.551 10.547-16.477 24.855-16.477 39.773v75c0 14.918 5.9258 29.227 16.477 39.773 10.547 10.551 24.855 16.477 39.773 16.477zm-18.75-131.25c0-4.9727 1.9766-9.7422 5.4922-13.258 3.5156-3.5156 8.2852-5.4922 13.258-5.4922h225c4.9727 0 9.7422 1.9766 13.258 5.4922 3.5156 3.5156 5.4922 8.2852 5.4922 13.258v75c0 4.9727-1.9766 9.7422-5.4922 13.258-3.5156 3.5156-8.2852 5.4922-13.258 5.4922h-225c-4.9727 0-9.7422-1.9766-13.258-5.4922-3.5156-3.5156-5.4922-8.2852-5.4922-13.258z"/>
  <path d="m504.51 932.51c30.875 38.793 77.785 61.352 127.37 61.238h11.25c43.262 0 84.754-17.188 115.35-47.777 30.59-30.594 47.777-72.086 47.777-115.35 0.003906-43.902-12.18-86.945-35.195-124.33l-117.58-191.12c-3.6484-5.1914-9.5938-8.2773-15.938-8.2773s-12.293 3.0859-15.938 8.2773l-117.66 191.08c-23.023 37.395-35.207 80.453-35.195 124.37 0.050781 37.027 12.656 72.945 35.758 101.89zm31.367-206.61 101.62-165.13 101.62 165.13c19.383 31.488 29.641 67.742 29.625 104.72 0 33.316-13.234 65.27-36.793 88.832-23.562 23.559-55.516 36.793-88.832 36.793h-11.25c-33.316 0-65.27-13.234-88.832-36.793-23.559-23.562-36.793-55.516-36.793-88.832-0.015625-36.977 10.242-73.23 29.625-104.72z"/>
  <path d="m731.25 825h-37.5c0 14.918-5.9258 29.227-16.477 39.773-10.547 10.551-24.855 16.477-39.773 16.477v37.5c24.855-0.03125 48.684-9.918 66.258-27.492 17.574-17.574 27.461-41.402 27.492-66.258z"/>
 </g>
</svg>
