<?xml version="1.0" encoding="UTF-8"?>
<svg width="1200pt" height="1200pt" version="1.1" viewBox="0 0 1200 1200" xmlns="http://www.w3.org/2000/svg">
 <g fill="#2F85F7">
  <path d="m1005.6 612-15.602-48-105.6-336-15.602-48h66c12 0 19.199-8.3984 20.398-12 2.3984-3.6016 6-13.199 0-24-13.199-21.602-37.199-36-62.398-36h-681.6c-25.199 0-49.199 13.199-62.398 36-6 10.801-2.3984 20.398 0 24 2.3984 3.6016 8.3984 12 20.398 12h10.801v531.6c-40.801 10.801-72 48-72 92.398v120c0 13.199 10.801 24 24 24h56.398c19.199-56.398 73.199-96 135.6-96 62.398 0 116.4 39.602 135.6 96h280.8c19.199-56.398 73.199-96 135.6-96 62.398 0 116.4 39.602 135.6 96h56.395c13.199 0 24-10.801 24-24v-216c0-49.199-38.398-91.199-86.398-96zm-177.6 0-34.801-44.398-82.801-104.4 32.398-32.398c9.6016-9.6016 9.6016-24 0-33.602s-24-9.6016-33.602 0l-97.195 95.996c-9.6016 9.6016-9.6016 24 0 33.602 4.8008 4.8008 10.801 7.1992 16.801 7.1992s12-2.3984 16.801-7.1992l30-30 79.199 100.8 32.398 40.801-81.602 151.2c-12 22.801-37.199 38.398-63.602 38.398h-102c-39.602 0-72-32.398-72-72v-24c0-13.199-10.801-24-24-24h-120v-120c0-52.801-43.199-96-96-96v-312h590.4l15.602 48 105.6 336 15.602 48z"/>
  <path d="m324 900c-52.801 0-96 43.199-96 96s43.199 96 96 96 96-43.199 96-96-43.199-96-96-96z"/>
  <path d="m876 900c-52.801 0-96 43.199-96 96s43.199 96 96 96 96-43.199 96-96-43.199-96-96-96z"/>
 </g>
</svg>
