<?xml version="1.0" encoding="UTF-8"?>
<svg width="1200pt" height="1200pt" version="1.1" viewBox="0 0 1200 1200" xmlns="http://www.w3.org/2000/svg">
 <g fill="#2F85F7">
  <path d="m601.29 250.66-389.29 377.82v498h778.77v-498zm0.070312 157.41c44.117 0 79.941 35.824 79.941 79.941 0 44.293-35.824 80.117-79.941 80.117-44.293 0-79.941-35.824-79.941-80.117 0-44.117 35.648-79.941 79.941-79.941m137.4 451.41-207.18 217.94c-12.176 12.707-32.824-1.4102-25.234-17.469l48.531-102.88c4.9414-10.234-2.6289-22.059-13.941-22.059h-65.648c-11.277 0-18.707-11.648-14.293-21.883l87.352-198.35c2.4883-5.6484 8.1172-9.1758 14.312-9.1758h88.922c10.957 0 18.371 10.766 14.645 20.824l-28.234 75.531c-3.5312 9.1758 2.6445 19.41 12.531 20.824l79.059 10.766c12.531 1.582 17.824 16.938 9.1797 25.934"/>
  <path d="m1112.1 1144.2h-1021.9c-4.8867 0-8.8242 3.9531-8.8242 8.8242s3.9375 8.8242 8.8242 8.8242h1021.9c4.8711 0 8.8242-3.9531 8.8242-8.8242-0.003906-4.8711-3.957-8.8242-8.8281-8.8242"/>
  <path d="m1138.6 530.84-147.69-142-149.17-145.52-189.16-184.38c-28.59-27.688-73.871-27.688-102.44 0l-488.73 474.62c-28.957 28.41-29.504 74.789-1.2891 103.73 28.219 28.957 74.594 29.523 103.75 1.2891l53.699-52.41 383.72-372.35 381.18 369.63 53.699 52.41c14.293 13.922 32.805 20.895 51.141 20.895 19.059 0 38.117-7.5156 52.59-22.184 28.215-28.953 27.668-75.312-1.2891-103.73"/>
 </g>
</svg>
