<?xml version="1.0" encoding="UTF-8"?>
<svg width="1200pt" height="1200pt" version="1.1" viewBox="0 0 1200 1200" xmlns="http://www.w3.org/2000/svg">
 <g fill="#2F85F7">
  <path d="m519.89 993.75c-5.6094-0.011719-10.922-2.5312-14.477-6.8672-3.5586-4.3398-4.9922-10.039-3.9062-15.547l33.012-165.09h-89.629c-6.3047 0.003906-12.191-3.1641-15.66-8.4297-3.4688-5.2656-4.0586-11.926-1.5703-17.719l112.5-262.5c1.4453-3.3711 3.8516-6.2422 6.9141-8.2617 3.0625-2.0156 6.6484-3.0938 10.316-3.0898h150c6.2227 0 12.039 3.0859 15.527 8.2344 3.4883 5.1523 4.1953 11.695 1.8867 17.473l-64.727 161.79h122.32-0.003907c4.9727 0 9.7422 1.9766 13.258 5.4922 3.5156 3.5156 5.4922 8.2852 5.4922 13.258s-1.9766 9.7422-5.4922 13.258l-262.5 262.5c-3.5195 3.5117-8.2852 5.4844-13.258 5.4922zm-46.562-225h84.062c5.6172-0.007812 10.941 2.5078 14.504 6.8516 3.5625 4.3398 4.9883 10.055 3.8828 15.562l-25.359 126.78 186.71-186.7h-104.74c-6.2188 0-12.035-3.0859-15.523-8.2344-3.4883-5.1523-4.1953-11.695-1.8906-17.473l64.73-161.79h-109.96z"/>
  <path d="m974.58 1098.2c-4.9727 0.003906-9.7422-1.9727-13.262-5.4883-3.5156-3.5195-5.4883-8.2891-5.4883-13.262v-525c0-6.6992 3.5742-12.891 9.375-16.238 5.8008-3.3516 12.949-3.3516 18.75 0 5.8008 3.3477 9.375 9.5391 9.375 16.238v525c0.003907 4.9727-1.9688 9.7422-5.4883 13.262-3.5156 3.5156-8.2852 5.4922-13.262 5.4883z"/>
  <path d="m224.58 1098.2c-4.9727 0.003906-9.7422-1.9727-13.262-5.4883-3.5156-3.5195-5.4883-8.2891-5.4883-13.262v-525c0-6.6992 3.5742-12.891 9.375-16.238 5.8008-3.3516 12.949-3.3516 18.75 0 5.8008 3.3477 9.375 9.5391 9.375 16.238v525c0.003907 4.9727-1.9688 9.7422-5.4883 13.262-3.5156 3.5156-8.2852 5.4922-13.262 5.4883z"/>
  <path d="m1049.6 1098.2h-900c-6.6992 0-12.887-3.5742-16.238-9.375-3.3477-5.8008-3.3477-12.949 0-18.75 3.3516-5.8008 9.5391-9.375 16.238-9.375h900c6.6992 0 12.891 3.5742 16.238 9.375 3.3516 5.8008 3.3516 12.949 0 18.75-3.3477 5.8008-9.5391 9.375-16.238 9.375z"/>
  <path d="m157.55 604.65c-3.1445 0-6.2852-0.18359-9.4102-0.54688-20.461-2.4648-39.105-12.953-51.836-29.16-12.73-16.203-18.504-36.801-16.059-57.262 2.4492-20.461 12.918-39.113 29.113-51.859l442.2-347.46c13.688-10.781 30.605-16.645 48.027-16.645 17.426 0 34.34 5.8633 48.027 16.645l158.77 124.77v-101.15c-0.003906-4.9727 1.9727-9.7461 5.4883-13.262s8.2891-5.4922 13.262-5.4883h112.77c4.9766-0.003907 9.7461 1.9727 13.262 5.4883s5.4922 8.2891 5.4883 13.262v219.21l133.15 104.59h0.003906c21.746 17.188 32.695 44.652 28.738 72.086-3.9531 27.434-22.219 50.688-47.934 61.031-25.715 10.344-54.992 6.2148-76.844-10.84l-394.19-309.74-394.17 309.74c-13.641 10.75-30.5 16.594-47.867 16.586zm442.04-465.41c-9.0156 0.003906-17.77 3.0508-24.848 8.6406l-442.2 347.43c-11.297 8.8789-17 23.113-14.957 37.336 2.043 14.227 11.52 26.281 24.859 31.625 13.336 5.3438 28.516 3.1641 39.812-5.7188l405.74-318.82c3.3047-2.5977 7.3867-4.0078 11.594-4.0078 4.2031 0 8.2852 1.4102 11.59 4.0078l405.76 318.82c11.305 8.8789 26.484 11.051 39.824 5.6992 13.34-5.3516 22.812-17.41 24.848-31.641 2.0352-14.227-3.6758-28.461-14.977-37.34l-140.31-110.19h-0.003906c-4.5195-3.5625-7.1602-9-7.1602-14.758v-209.58h-75.273v120.96c-0.007812 4.7109-1.7852 9.2461-4.9844 12.711-3.1992 3.4609-7.582 5.5898-12.277 5.9688-4.6992 0.38281-9.3672-1.0195-13.078-3.9219l-189.11-148.57v-0.003906c-7.0742-5.5898-15.828-8.6328-24.848-8.6406z"/>
  <path d="m959.05 160.73h-155.07c-6.6992 0-12.891-3.5742-16.238-9.375s-3.3477-12.949 0-18.75 9.5391-9.375 16.238-9.375h155.07c6.6992 0 12.891 3.5742 16.238 9.375 3.3516 5.8008 3.3516 12.949 0 18.75-3.3477 5.8008-9.5391 9.375-16.238 9.375z"/>
 </g>
</svg>
