<?xml version="1.0" encoding="UTF-8"?>
<svg width="1200pt" height="1200pt" version="1.1" viewBox="0 0 1200 1200" xmlns="http://www.w3.org/2000/svg">
 <path d="m899.96 37.426c-4.4023 0.023438-8.6523 1.5898-12.012 4.4297l-243.75 206.39c-4.2422 3.0625-7.0117 7.7578-7.6445 12.949-0.62891 5.1914 0.9375 10.414 4.3242 14.398 3.3867 3.9883 8.2852 6.3789 13.512 6.5938 5.2266 0.21875 10.309-1.7578 14.016-5.4492l231.55-196 231.7 196h-0.003907c3.7148 3.6445 8.7773 5.582 13.977 5.3477s10.062-2.6211 13.438-6.582c3.3711-3.9648 4.9453-9.1484 4.3438-14.316-0.60156-5.1719-3.3242-9.8555-7.5117-12.941l-243.75-206.39c-3.4102-2.8828-7.7344-4.4531-12.195-4.4297zm93.715 0c-7.2656 0.039063-13.391 4.3086-16.48 10.363l129.02 109.31v-100.86c0.039062-10.355-8.3203-18.781-18.676-18.824zm-93.676 92.469-206.25 174.61v201.75c-0.039062 10.355 8.3203 18.781 18.676 18.824h93.855v-243.9c0.019532-4.9492 1.9961-9.6875 5.4922-13.184 3.5-3.5 8.2383-5.4727 13.188-5.4922h150.04c4.9492 0.019531 9.6875 1.9922 13.184 5.4922 3.5 3.4961 5.4727 8.2344 5.4922 13.184v243.9h93.859c10.355-0.039063 18.715-8.4688 18.676-18.824v-201.89zm-56.215 170.11v225.07h112.54v-225.07zm-149.2 3.6289c-0.25391 0.21094-0.58984 0.42578-0.84375 0.63672v0.14062zm410.93 0 0.69531 0.63672v-0.14062c-0.21094-0.21094-0.48828-0.35547-0.69531-0.56641zm-908.53 33.875c-88.066 0-159.45 71.371-159.45 159.34s71.332 159.45 159.3 159.45l806.25-0.003907c67.844 0 121.95 53.957 121.95 121.8s-54.129 121.91-122.09 121.91h-271.69l-0.003906 0.003906c-6.6914 0.019532-12.863 3.6016-16.203 9.3984-3.3398 5.8008-3.3398 12.938 0 18.734 3.3398 5.8008 9.5117 9.3789 16.203 9.4023h271.69c88.066 0 159.59-71.48 159.59-159.45s-71.48-159.34-159.45-159.34l-806.25 0.003906c-67.844 0-121.77-54.066-121.77-121.91s53.945-121.8 121.91-121.8h403.05v-0.003907c4.9883 0.015626 9.7773-1.957 13.312-5.4766 3.5312-3.5234 5.5156-8.3047 5.5156-13.293s-1.9844-9.7695-5.5156-13.293c-3.5352-3.5195-8.3242-5.4883-13.312-5.4727zm-140.77 412.5c-10.355 0.039063-18.715 8.4688-18.676 18.824v318.75c0.039062 10.297 8.3789 18.637 18.676 18.676l40.203-0.003906c8.4141 32.18 37.609 56.176 72.328 56.176s63.949-23.996 72.363-56.176h192.73c8.4141 32.18 37.645 56.176 72.363 56.176s63.91-23.996 72.328-56.176h40.172c10.367 0.058594 18.82-8.3086 18.859-18.676v-131.36c-0.039062-2.8906-0.75781-5.7383-2.0859-8.3125l-56.066-112.54c-3.1953-6.3867-9.7422-10.406-16.883-10.363l-131.36-0.003906v-56.176c0.039063-10.355-8.3203-18.781-18.676-18.824zm412.54 112.5h82.176l37.5 75.035h-119.68zm-300 187.57c20.934 0 37.535 16.566 37.535 37.5s-16.605 37.352-37.535 37.352c-20.934 0-37.5-16.422-37.5-37.352 0-20.934 16.566-37.5 37.5-37.5zm337.46 0c20.934 0 37.5 16.566 37.5 37.5s-16.566 37.352-37.5 37.352-37.535-16.422-37.535-37.352c0-20.934 16.605-37.5 37.535-37.5z" fill="#2F85F7"/>
</svg>
