<?xml version="1.0" encoding="UTF-8"?>
<svg width="1200pt" height="1200pt" version="1.1" viewBox="0 0 1200 1200" xmlns="http://www.w3.org/2000/svg">
 <g fill="#2F85F7" fill-rule="evenodd">
  <path d="m590.25 579.62c6.9883-9.2305 11.867-14.902 11.867-14.902s64.355 76.617 64.355 121.05c0 35.473-28.883 64.352-64.355 64.352-6.7227 0-13.055-1.0547-19.117-3.0312-26.242-8.043-45.102-32.441-45.102-61.32 0-32.965 33.758-81.758 52.352-106.15m-386.11-86.637v242.37h0.13281c1.7148 2.5078 6.7266 26.902 78.988 47.738v-258.59c61.848 15.957 138.86 23.605 207.04 27.031l-66.465 254.77c47.211 4.2227 104.84 6.7266 174.99 6.7266 113.54 0 194.9-7.5156 253.32-17.934v-260.44l65.934-16.219v260.97c53.805-16.617 73.188-35.211 81.363-44.836v-245.67c19.648-14.109 31.387-31.25 31.387-51.953 0-16.75-10.418-31.121-25.188-36.793-46.684 78.199-391.12 79.254-406.81 79.254-15.695 0-359.47-1.0547-406.82-79.121-14.637 5.8008-25.184 19.781-25.184 36.66 0 22.812 13.977 41.141 37.316 56.043"/>
  <path d="m601.86 86.961c159.16 0 264.26 22.684 304.75 40.09-36.922 17.406-142.15 41.273-304.75 41.273s-267.96-23.867-304.88-41.273c40.484-17.406 145.58-40.09 304.88-40.09m-318.59 322.16v-202.68c82.023 31.781 211.52 39.297 286.42 40.746l-49.977 191.34c24.527 0.78906 50.637 1.3164 79.121 1.3164 113.14 0 194.5-7.6484 253.32-18.195v-201.36l65.934-17.672v203.74c54.859-16.484 74.637-34.285 81.363-41.406v-238.82c0-109.71-304.35-118.29-397.58-118.29-93.363 0-397.71 8.5742-397.71 118.29v238.82c4.2188 4.7461 16.219 25.582 79.121 44.176"/>
  <path d="m918.07 1068.2-65.934 25.582v-198.86l65.934-17.406zm-567.3 17.805c-35.074-8.1758-57.891-16.75-67.516-23.605v-169.19c34.285 8.8359 73.188 15.164 112.75 19.648zm656.7-316.35c-38.242 81.887-392.83 82.945-408.66 82.945-15.957 0-370.42-1.0586-408.66-82.816-13.848 6.1992-23.34 19.781-23.34 35.871 0 22.812 13.977 41.273 37.316 56.176v208.75c0 109.71 304.35 118.29 397.71 118.29 93.23 0 397.58-8.5703 397.58-118.29v-212.97c19.648-14.109 31.387-31.25 31.387-51.953 0-16.09-9.6289-29.805-23.344-36z"/>
  <path d="m461.34 116.3c-35.156 0-63.652 7.4258-63.652 16.605 0 9.1641 28.496 16.586 63.652 16.586s63.664-7.4219 63.664-16.586c0-9.1797-28.508-16.605-63.664-16.605"/>
 </g>
</svg>
