<?xml version="1.0" encoding="UTF-8"?>
<svg width="1200pt" height="1200pt" version="1.1" viewBox="0 0 1200 1200" xmlns="http://www.w3.org/2000/svg">
 <g fill="#2F85F7">
  <path d="m1181.1 517.29-51.176-125.65c-9-22.234-30.352-36.531-54.352-36.531h-215.12c-32.293 0-58.59 26.293-58.59 58.59v310.77h-731.82c-19.234 0-34.941 15.707-34.941 34.941v67.766c0 19.41 15.707 35.117 34.941 35.117h48.883c0.88281-66.531 55.234-120.18 121.94-120.18 66.707 0 121.06 53.648 121.94 120.18h15.707c0.88281-66.531 55.234-120.18 121.94-120.18 66.707 0 121.06 53.648 121.94 120.18h247.76c-1.1992-20.387 8.6133-54.426 30-78.176 8.6719-10.602 27.055-23.836 29.117-24.352 18.355-11.293 39.883-17.648 62.824-17.648 22.941 0 44.473 6.3516 62.824 17.648 1.1055 0.27734 5.6211 3.5547 6.5312 4.2344 23.293 13.582 46.637 44.727 52.234 89.473 0.35156 3 0.53125 5.8242 0.35156 8.8242h33.352c19.234 0 34.941-15.707 34.941-35.117v-303.35c0-2.3008-0.35156-4.418-1.2344-6.5352zm-69.352 87.352h-182.12v-178.94h138l44.117 108.35z"/>
  <path d="m327.71 864.23c0 5.4688-0.53125 10.59-1.5898 15.707-7.2344 40.59-42.707 71.117-85.234 71.117-42.527 0-78-30.527-85.234-71.117-1.0586-5.1172-1.5898-10.234-1.5898-15.707 0-48 38.824-86.824 86.824-86.824s86.824 38.824 86.824 86.824z"/>
  <path d="m587.29 864.23c0 5.4688-0.52734 10.59-1.5859 15.707-7.2344 40.59-42.707 71.117-85.234 71.117s-78-30.527-85.234-71.117c-1.0586-5.1172-1.5859-10.234-1.5859-15.707 0-48 38.824-86.824 86.824-86.824 47.996 0 86.816 38.824 86.816 86.824z"/>
  <path d="m1078.9 864.23c0 5.4688-0.53125 10.59-1.5898 15.707-7.2344 40.59-42.707 71.117-85.234 71.117-42.527 0-78-30.527-85.234-71.117-1.0586-5.1172-1.5898-10.234-1.5898-15.707 0-48 38.824-86.824 86.824-86.824s86.824 38.824 86.824 86.824z"/>
  <path d="m552.35 322.64h-79.367v-38.668c0-19.309-15.719-35.02-35.027-35.02h-104.25c-19.309 0-35.02 15.707-35.02 35.02v38.668h-96.801c-101.47 0-184.23 82.59-184.23 184.23 0 101.65 82.766 184.23 184.23 184.23h367.94c101.47 0 184.06-82.59 184.06-184.23 0-98.117-94.059-184.23-201.53-184.23zm-218.64-38.395 103.99-0.27734v38.668h-103.8zm51.527 309.45c-36 0-65.293-29.117-65.293-65.117s65.293-108.53 65.293-108.53 65.117 72.527 65.117 108.53c0 36.004-29.293 65.117-65.117 65.117z"/>
 </g>
</svg>
