<?xml version="1.0" encoding="UTF-8"?>
<svg width="1200pt" height="1200pt" version="1.1" viewBox="0 0 1200 1200" xmlns="http://www.w3.org/2000/svg">
 <path d="m325 0c-54.879 0-100 45.121-100 100v1e3c0 54.879 45.121 100 100 100h550c54.879 0 100-45.121 100-100v-1e3c0-54.879-45.121-100-100-100zm0 50h550c27.566 0 50 22.434 50 50v100h-650v-100c0-27.566 22.434-50 50-50zm225 50c-13.852 0-25 11.148-25 25s11.148 25 25 25h100c13.852 0 25-11.148 25-25s-11.148-25-25-25zm-275 150h650v700h-650zm100 200c-13.852 0-25 11.148-25 25v250c0 13.852 11.148 25 25 25h400c13.852 0 25-11.148 25-25v-50h25c13.852 0 25-11.148 25-25v-100c0-13.852-11.148-25-25-25h-25v-50c0-13.852-11.148-25-25-25h-100c-13.809 0-25 11.191-25 25s11.191 25 25 25h75v50c0 13.852 11.148 25 25 25h25v50h-25c-13.852 0-25 11.148-25 25v50h-350v-200h50c13.809 0 25-11.191 25-25s-11.191-25-25-25zm187.5 0c-10.961 0-20.703 6.9805-24.023 17.434l-24.707 74.656c-5.3984 16.195 6.6602 32.918 23.73 32.91h40.281l-13.523 41.504c-6.4336 19.305 8.4375 33.496 23.242 33.496 9.7109 0 19.582-5.5508 23.73-17.871l25-74.219c5.3984-16.195-6.6602-32.918-23.73-32.91h-40.285l13.723-41.75c5.6562-16.188-6.2891-33.137-23.438-33.25zm-287.5 550h650v100c0 27.566-22.434 50-50 50h-550c-27.566 0-50-22.434-50-50zm325 50c-13.809 0-25 11.191-25 25s11.191 25 25 25 25-11.191 25-25-11.191-25-25-25z" fill="#2F85F7"/>
</svg>
