<?xml version="1.0" encoding="UTF-8"?>
<svg width="1200pt" height="1200pt" version="1.1" viewBox="0 0 1200 1200" xmlns="http://www.w3.org/2000/svg">
 <g fill="#2F85F7">
  <path d="m768.96 451.2c-9.6016 10.199-57.723 62.402-57.723 96.359 0 37.68 30.602 68.398 68.281 68.398 37.559 0 68.398-30.719 68.398-68.398 0-33.961-48.121-86.281-57.961-96.48-5.2773-5.6367-15.355-5.6367-20.996 0.12109zm10.559 135.84c-21.84 0-39.359-17.641-39.359-39.359 0-13.922 20.52-43.078 39.359-64.922 18.961 21.84 39.602 51 39.602 64.922 0 21.602-17.762 39.359-39.602 39.359z"/>
  <path d="m1047.5 404.4c-2.2812-1.5586-4.9219-2.1602-7.8008-2.1602h-80.16v-26.52c0-8.0391-6.4805-14.52-14.52-14.52h-115.56c-8.0391 0-14.52 6.4805-14.52 14.52v26.52h-74.762v-26.52c0-8.0391-6.6016-14.52-14.52-14.52h-115.8c-7.9219 0-14.398 6.4805-14.398 14.52v26.52h-75.723c-2.2812 0-4.5586 0.60156-6.8398 1.6797-38.277 20.043-63 70.562-63 128.64 0 54.359 22.559 103.8 57.48 125.52 2.3984 1.5586 5.0391 2.2812 7.6797 2.2812h520.2c2.3984 0 4.6797-0.48047 6.7188-1.6797 38.281-20.16 63.121-70.801 63.121-128.76 0-54.359-22.68-103.68-57.598-125.52zm-203.64-14.277h86.762v12.121l-72.602-0.003907h-14.16zm-219.48 0h86.879v12.121l-86.879-0.003907zm407.16 241.32h-511.92c-24.48-17.762-40.801-56.641-40.801-98.883 0-45.238 17.762-85.32 44.762-101.52h511.8c24.48 17.52 40.801 56.762 40.801 98.762 0 45.238-18 85.438-44.641 101.64z"/>
  <path d="m1040.2 674.64h-819.84c-7.9219 0-14.398 6.6016-14.398 14.52v64.922c0 8.1602 6.4805 14.52 14.398 14.52h9.3594c0.96094 0 1.6797-0.71875 2.5195-0.96094 5.5195 39.84 38.402 71.039 79.801 71.039 41.039 0 73.559-30.719 79.559-70.078h254.64c6 39.359 38.398 70.078 79.441 70.078 41.039 0 73.559-30.719 79.68-70.078h12c6.1211 39.359 38.641 70.078 79.559 70.078 41.039 0 73.441-30.719 79.559-70.078h63.719c8.0391 0 14.52-6.3594 14.52-14.52l0.003907-64.922c0-7.9219-6.4805-14.52-14.52-14.52zm-221.88 65.039h-14.043c-3-13.559-8.5195-25.918-17.277-36.121h48.719c-8.7578 10.203-14.281 22.562-17.398 36.121zm-171.12 0h-256.56c-3.1211-13.559-8.5234-25.918-17.523-36.121h291.36c-8.7578 10.203-14.277 22.562-17.277 36.121zm-396.48-36.121c-7.3203 8.6406-12.602 18.363-15.84 29.16v-29.16zm61.32 106.32c-29.281 0-53.039-23.879-53.039-53.16 0-29.277 23.641-53.16 53.039-53.16s53.039 23.762 53.039 53.039c0 29.281-23.758 53.281-53.039 53.281zm413.64 0c-29.281 0-53.039-23.879-53.039-53.16s23.762-53.039 53.039-53.039c29.16 0 53.039 23.762 53.039 53.039 0 29.281-23.879 53.16-53.039 53.16zm171.24 0c-29.281 0-52.922-23.879-52.922-53.16s23.641-53.039 52.922-53.039 53.16 23.762 53.16 53.039c0 29.281-23.879 53.16-53.16 53.16zm128.76-70.199h-50.16c-3-13.559-8.5195-25.918-17.402-36.121h67.559z"/>
  <path d="m425.28 645.84v-270.12c0-8.0391-6.4805-14.52-14.398-14.52h-150.72c-3.4805 0-6.8398 1.3203-9.2383 3.3594l-126.72 106.2c-3.1211 2.5195-5.1602 6.4805-5.1602 10.801l-2.3984 101.04-18.48 22.559c-2.1602 2.6406-3.2383 6-3.2383 9.1211v142.44c0 7.8008 6.4805 14.52 14.52 14.52h69.84c8.0391 0 14.52-6.7188 14.52-14.52v-96.363h217.08c7.9219 0 14.402-6.4805 14.402-14.52zm-28.922-14.398h-217.08c-7.8008 0-14.52 6.4805-14.52 14.398v96.359h-40.801v-122.64l18.238-22.559c2.1602-2.5195 3.2383-5.6406 3.2383-8.8789l2.3984-99.602 117.48-98.398h131.04z"/>
  <path d="m195.72 503.16 10.922 32.641c2.0391 5.8789 7.5586 9.8398 13.68 9.8398h127.92c7.8008 0 14.281-6.4805 14.281-14.52l-0.003907-99.961c0-7.9219-6.4805-14.52-14.281-14.52h-65.277c-3.4805 0-7.1992 1.4414-9.6016 3.8398l-73.559 67.559c-4.3203 3.8398-5.8789 9.6016-4.082 15.121zm92.883-57.602h45.121v71.16h-103.08l-4.4414-13.918z"/>
  <path d="m348.24 551.76h-42.84c-7.9219 0-14.52 6.4805-14.52 14.398 0 7.9219 6.6016 14.52 14.52 14.52h42.84c7.8008 0 14.281-6.6016 14.281-14.52 0-7.9219-6.3594-14.398-14.281-14.398z"/>
 </g>
</svg>
