<?xml version="1.0" encoding="UTF-8"?>
<svg width="1200pt" height="1200pt" version="1.1" viewBox="0 0 1200 1200" xmlns="http://www.w3.org/2000/svg">
 <path d="m990 746.4c-15.602-60-80.398-160.8-117.6-214.8 1.1992 6 13.199 51.602 16.801 78 6 42-7.1992 80.398-39.602 112.8-21.598 21.602-45.598 40.801-73.199 56.402-46.801 25.199-93.602 51.602-141.6 75.602-37.195 19.199-58.797 45.598-64.797 81.598-7.1992 44.398-2.3984 88.801 10.801 133.2 4.8008 16.801 9.6016 34.801 14.398 51.602-46.801-51.602-88.801-103.2-116.4-164.4-36-78-8.3984-162 75.602-213.6 48-30 94.801-60 144-90 85.199-50.398 144-176.4 98.398-276-38.398-84-97.199-156-177.6-216-46.801-34.801-91.199-70.801-144-99.602 6 13.199 48 112.8 48 156 0 72-27.602 136.8-68.398 199.2-44.398 67.199-97.199 132-140.4 200.4-91.199 146.4-52.801 310.8 94.801 420 56.398 42 120 74.398 189.6 100.8h4.8008c16.801-56.398 61.199-91.199 123.6-114 33.602-12 64.801-26.398 97.199-39.602 38.398-15.602 73.199-37.199 105.6-60 31.191-22.797 83.992-87.598 59.992-177.6z" fill="#2F85F7"/>
</svg>
